<?xml version="1.0" encoding="UTF-8"?>
<svg width="1522px" height="1151px" viewBox="0 0 1522 1151" version="1.1" xmlns="http://www.w3.org/2000/svg" xmlns:xlink="http://www.w3.org/1999/xlink">
    <!-- Generator: Sketch 46.2 (44496) - http://www.bohemiancoding.com/sketch -->
    <title>pattern</title>
    <desc>Created with Sketch.</desc>
    <defs>
        <rect id="path-1" x="0.50818279" y="0.906079587" width="1521.10886" height="1149.73052"></rect>
    </defs>
    <g id="Page-1" stroke="none" stroke-width="1" fill="none" fill-rule="evenodd">
        <g id="Artboard">
            <g id="pattern">
                <mask id="mask-2" fill="white">
                    <use xlink:href="#path-1"></use>
                </mask>
                <use id="background" fill="#D8C1C1" xlink:href="#path-1"></use>
                <g id="shapes" opacity="0.68285779" mask="url(#mask-2)" stroke="#FFEDED" stroke-width="4">
                    <g transform="translate(-12.178551, -18.386110)">
                        <path d="M494.166838,296.037016 L553.952451,353.646826" id="Line" stroke-linecap="square"></path>
                        <polyline id="Path-2" points="613.567235 233.007134 588.072719 287.46162 608.779716 343.280699"></polyline>
                        <polyline id="Path-3" points="667.045172 235.640561 660.406651 328.794456 727.427603 342.461943"></polyline>
                        <path d="M711.490828,271.950734 C711.490828,271.950734 730.774975,247.301856 790.208119,309.551285" id="Path-4"></path>
                        <path d="M799.214451,232.770126 C799.214451,232.770126 890.31572,310.271887 798.887931,353.28054" id="Path-5"></path>
                        <polyline id="Path-6" points="912.908316 312.570151 877.957691 243.368473 945.817649 271.950734 927.54766 219.334859"></polyline>
                        <path d="M840.278137,366.998302 C840.278137,366.998302 863.467551,434.622317 818.19154,419.867943 C772.915528,405.113569 775.380647,360.318973 753.071324,402.453807" id="Path-7"></path>
                        <path d="M884.892459,357.072675 C884.892459,357.072675 917.248222,415.802889 965.244513,430.332225" id="Path-8"></path>
                        <polyline id="Path-9" points="957.946465 379.339499 1027.96016 393.837712 1032.21357 470.274132 1084.04809 482.237074"></polyline>
                        <polyline id="Path-10" points="1108.02245 437.595695 1165.76461 355.976212 1182.49066 462.797593"></polyline>
                        <polyline id="Path-11" points="1095.14761 504.144793 1142.80225 483.503513 1117.1715 559.240877 1178.9184 520.788053"></polyline>
                        <polyline id="Path-12" points="1017.74073 328.198344 1040.72039 364.690462 1073.21455 328.880641 1099.65402 380.948283"></polyline>
                        <polyline id="Path-13" points="1077.23874 268.371667 1126.93034 299.850697 1176.59816 276.365315"></polyline>
                        <path d="M1197.89332,295.170379 C1197.89332,295.170379 1210.08485,332.45492 1238.83159,313.812649" id="Path-14"></path>
                        <path d="M1211.65042,367.46753 C1211.65042,367.46753 1302.17433,445.81917 1211.29362,491.142845" id="Path-15"></path>
                        <path d="M1301.12125,490.491671 C1301.12125,490.491671 1331.79467,542.935175 1380.08072,562.949222" id="Path-16"></path>
                        <polyline id="Path-17" points="1322.89646 458.021514 1289.84657 390.146126 1356.44153 418.484196 1338.29264 365.499642"></polyline>
                        <polyline id="Path-18" points="1354.25104 459.759576 1376.96473 497.769506 1409.7681 461.33245 1436.66168 511.642879"></polyline>
                        <path d="M923.655368,489.63461 C923.655368,489.63461 964.04439,477.432266 1024.63441,503.924543" id="Path-19"></path>
                        <polyline id="Path-20" points="893.02735 526.028573 872.402525 455.321054 913.174289 458.086153 884.328077 432.520363"></polyline>
                        <polyline id="Path-21" points="741.223618 517.410084 789.840514 547.139083 838.600127 523.344871"></polyline>
                        <polyline id="Path-22" points="696.754176 494.092284 711.02159 429.060997 730.666855 496.378577 791.635293 452.024482"></polyline>
                        <path d="M650.418596,382.008836 L710.463695,381.659309" id="Path-23"></path>
                        <path d="M806.951464,486.649261 C806.951464,486.649261 815.875626,474.648015 847.312375,476.345379" id="Path-24"></path>
                        <polyline id="Path-25" points="515.295499 257.064688 558.063144 226.751548 527.83733 190.573047 559.849274 166.680681"></polyline>
                        <polyline id="Path-26" points="711.953578 125.156322 744.765604 194.286179 680.663871 166.932053 699.973967 220.275711"></polyline>
                        <polyline id="Path-27" points="660.084456 41.3439124 682.698675 77.8144844 715.400419 43.4003796 741.439856 91.8626212"></polyline>
                        <polyline id="Path-28" points="753.655168 16.4652079 803.521922 45.9332577 853.321642 23.2929663"></polyline>
                        <polyline id="Path-29" points="534.322322 13.4942233 603.529445 27.6931837 608.727818 103.478429 658.624846 114.907503"></polyline>
                        <polyline id="Path-30" points="513.822915 100.402107 501.795731 176.371692 433.10758 182.864287 423.644985 239.044865"></polyline>
                        <polyline id="Path-31" points="395.107993 323.829249 355.875847 377.807323 344.94283 310.621414"></polyline>
                        <path d="M408.363412,367.381346 L408.363412,436.959913" id="Path-32"></path>
                        <path d="M397.097387,153.120925 L347.449034,216.782829" id="Path-33"></path>
                        <path d="M418.511483,131.191659 C418.511483,131.191659 511.355634,92.2097548 418.288758,11.3036907" id="Path-34"></path>
                        <path d="M505.979946,8.63674721 C505.979946,8.63674721 512.181665,17.2576301 510.114425,30.3026706 C508.047185,43.3477111 508.185578,60.5918708 532.994618,58.9519639 C557.803658,57.312057 559.723856,74.5633989 559.178935,84.3118674 C558.634014,94.0603359 556.043477,103.96681 562.595502,109.762744" id="Path-35"></path>
                        <path d="M604.727407,140.750999 C604.727407,140.750999 637.145878,137.528642 634.205035,177.154538" id="Path-36"></path>
                        <polyline id="Path-37" points="388.696523 58.185876 359.082664 105.288312 303.822922 108.357451"></polyline>
                        <polyline id="Path-38" points="356.038026 20.8869715 297.426588 62.8231018 276.745541 0.942351889 263.412276 60.7977569"></polyline>
                        <path d="M206.390191,20.0801852 L238.527553,78.355534" id="Path-39"></path>
                        <polyline id="Path-40" points="229.6661 141.021524 252.358166 177.858382 285.563745 143.168964 312.904938 192.598392"></polyline>
                        <path d="M309.311055,237.48396 C309.311055,237.48396 315.095434,277.514447 348.59726,254.931612 C382.099087,232.348777 385.383749,259.678963 385.383749,259.678963" id="Path-41"></path>
                        <path d="M473.116022,255.51336 C473.116022,255.51336 443.759487,264.186912 458.437755,292.718898 C473.116022,321.250884 468.901535,324.94247 453.306416,330.92035" id="Path-42"></path>
                        <polyline id="Path-43" points="184.807429 11.6747645 147.891197 44.4513564 121.840948 8.96233457 90.7674796 31.8707567 65.62327 10.5998474"></polyline>
                        <path d="M8.28980128,37.5398072 C8.28980128,37.5398072 50.9298657,35.7945632 52.3246039,77.7570278 C53.719342,119.719492 69.0311883,120.990719 96.1064075,123.317711" id="Path-44"></path>
                        <path d="M152.280838,93.3636747 C152.280838,93.3636747 146.070469,64.0129321 186.316774,61.3100782" id="Path-45"></path>
                        <polyline id="Path-46" points="198.000138 118.074797 114.90618 127.526407 115.771134 204.08971"></polyline>
                        <polyline id="Path-47" points="169.91941 192.962283 238.63351 206.957752 244.538982 283.554571 295.646945 294.758607"></polyline>
                        <path d="M297.266572,324.607307 L312.967647,372.514134" id="Path-48"></path>
                        <path d="M229.644476,339.979339 C229.644476,339.979339 260.607663,333.379013 260.002196,376.543278" id="Path-49"></path>
                        <path d="M144.424894,353.582187 C144.424894,353.582187 150.684998,313.297934 208.742866,265.874699" id="Path-50"></path>
                        <path d="M67.2688447,258.292823 L151.480756,251.213692" id="Path-51"></path>
                        <polyline id="Path-52" points="38.5394012 144.674806 71.2433079 211.240662 6.62260266 185.926245 22.7604799 235.84166"></polyline>
                        <polyline id="Path-53" points="60.8789979 299.88182 16.4722651 339.64657 71.3968372 370.258963"></polyline>
                        <path d="M122.965388,296.03941 C122.965388,296.03941 71.2303336,313.044167 104.399153,365.044777" id="Path-54"></path>
                        <polyline id="Path-55" points="176.672538 347.015378 163.83446 423.303368 95.3971453 431.359261 86.6416495 487.800787"></polyline>
                        <path d="M32.2187507,400.392552 C32.2187507,400.392552 -5.09752257,406.763052 1.15393168,456.539613" id="Path-56"></path>
                        <polyline id="Path-57" points="59.985933 451.306275 33.8037787 483.951195 43.1474431 530.615524 22.4642332 553.866292 31.7646499 602.105889"></polyline>
                        <polyline id="Path-58" points="231.44358 412.441678 200.666359 437.454448 230.781891 474.035145 188.392663 504.537414"></polyline>
                        <path d="M136.943043,501.786679 C136.943043,501.786679 106.492341,509.263218 122.889705,542.62874 C139.287068,575.994262 117.373461,578.826393 117.373461,578.826393" id="Path-59"></path>
                        <path d="M157.743022,544.093883 L215.331652,598.598643" id="Path-60"></path>
                        <polyline id="Path-61" points="276.157372 477.793764 251.28346 532.116578 271.300656 586.288568"></polyline>
                        <polyline id="Path-62" points="306.967029 420.432932 362.732769 436.788909 306.255605 459.503415 345.775348 524.678343"></polyline>
                        <path d="M389.070615,481.236371 C389.070615,481.236371 413.120658,491.928086 399.731172,508.624014 C386.341686,525.319942 357.821994,579.631384 383.785747,584.54093 C409.7495,589.450476 420.098674,578.005243 420.098674,578.005243" id="Path-63"></path>
                        <polyline id="Path-64" points="264.8481 623.367223 304.277023 632.933745 305.546343 581.297027 356.405632 596.441627"></polyline>
                        <polyline id="Path-65" points="89.6949368 572.10876 55.2567976 620.307659 64.8426491 677.558365"></polyline>
                        <polyline id="Path-66" points="126.583058 658.370257 169.59289 605.617924 177.014194 666.239417 211.121489 640.934576"></polyline>
                        <path d="M251.220751,664.27871 C251.220751,664.27871 188.835952,755.945915 301.883263,771.75366" id="Path-67"></path>
                        <polyline id="Path-68" points="183.713262 754.540623 123.776282 717.074137 105.456559 770.985178 90.0344312 715.11343"></polyline>
                        <polyline id="Path-69" points="18.5222058 678.851139 11.5809508 770.389066 77.6201804 783.429319"></polyline>
                        <polyline id="Path-70" points="30.4823557 813.194228 80.995663 849.128538 23.1583587 862.336372 73.4986751 916.668762 11.7301554 915.660878"></polyline>
                        <polyline id="Path-71" points="124.760168 917.722133 117.896758 831.90353 184.82689 823.16534"></polyline>
                        <polyline id="Path-72" points="199.131065 784.044583 245.656935 780.166263 222.949733 829.171948 272.721343 811.697962 254.514063 876.841768"></polyline>
                        <path d="M179.686902,867.296791 C179.686902,867.296791 268.787965,909.067734 180.054507,974.865108" id="Path-73"></path>
                        <polyline id="Path-74" points="89.173802 961.173681 71.738494 1009.26724 139.67846 984.031829 108.129267 1047.22211"></polyline>
                        <polyline id="Path-75" points="24.7801472 986.547949 11.0468418 1043.49461 57.4970282 1045.34998 47.5695199 1088.89011"></polyline>
                        <path d="M4.365073,1148.13504 C4.365073,1148.13504 69.9610137,1134.92481 75.9659561,1196.77204" id="Path-76"></path>
                        <polyline id="Path-77" points="80.1090853 1072.56286 95.8642204 1131.05367 145.183891 1153.60538"></polyline>
                        <path d="M175.582696,1007.21796 L179.498775,1091.87067" id="Path-78"></path>
                        <polyline id="Path-79" points="200.878272 1124.7143 164.870242 1142.16913 188.154801 1183.14526 140.523952 1203.37716"></polyline>
                        <polyline id="Path-80" points="223.256792 1125.3942 277.422367 1100.75729 246.134822 1158.51074 319.102333 1194.66051"></polyline>
                        <polyline id="Path-81" points="251.648903 1061.39713 233.629751 1008.61846 300.866942 1039.52293 267.65055 968.03735"></polyline>
                        <path d="M320.998744,805.334644 C320.998744,805.334644 274.025261,881.478993 292.226053,922.742403" id="Path-82"></path>
                        <polyline id="Path-83" points="346.752746 828.489651 366.527754 886.111431 342.722061 936.905453"></polyline>
                        <path d="M385.228058,965.624173 L442.671808,916.158835" id="Path-84"></path>
                        <polyline id="Path-85" points="427.329688 876.461118 390.296687 842.221777 422.010222 809.282391 393.607298 780.910805"></polyline>
                        <path d="M460.368764,873.966544 C460.368764,873.966544 490.304819,869.262286 489.547984,908.66075" id="Path-86"></path>
                        <polyline id="Path-87" points="434.549891 979.531062 484.479354 989.20771 433.371391 1021.55338 473.85772 1047.04735 431.416595 1068.821"></polyline>
                        <path d="M413.287162,1048.58192 C413.287162,1048.58192 371.935879,1073.61144 361.586705,1026.09245 C351.237532,978.573452 349.39518,983.488385 323.195727,987.512741" id="Path-88"></path>
                        <path d="M340.877547,1065.40473 C340.877547,1065.40473 429.991584,1139.22927 341.79656,1184.52421" id="Path-89"></path>
                        <path d="M413.494751,1172.24287 C413.494751,1172.24287 420.838209,1133.93847 477.682979,1083.87942" id="Path-90"></path>
                        <path d="M541.797686,1099.96008 C541.797686,1099.96008 508.840781,1095.55268 508.784559,1130.5198" id="Path-91"></path>
                        <path d="M461.966767,1167.99826 C461.966767,1167.99826 472.467307,1164.27316 484.252304,1180.05936 C496.037301,1195.84556 510.600962,1178.17765 516.657801,1168.02938 C522.714641,1157.88111 533.003267,1148.73115 551.301367,1164.39525" id="Path-92"></path>
                        <polyline id="Path-93" points="584.528571 1112.57659 627.067003 1144.33812 632.896792 1206.03453"></polyline>
                        <polyline id="Path-94" points="600.932421 1040.37759 532.696209 1047.79428 521.015007 979.780041"></polyline>
                        <path d="M608.576451,976.552896 L666.111022,1032.22115" id="Path-95"></path>
                        <polyline id="Path-96" points="616.743778 1060.71005 666.134808 1089.8166 714.836037 1067.8179"></polyline>
                        <polyline id="Path-97" points="670.050887 1117.72853 674.4881 1175.52747 718.220169 1159.54735 722.676844 1203.68599"></polyline>
                        <polyline id="Path-98" points="534.581808 907.882692 543.311355 853.622122 613.491552 855.740834 627.043217 780.561277"></polyline>
                        <polyline id="Path-99" points="432.794034 713.059357 437.188 787.614074 491.989316 771.238945 502.773129 850.801961"></polyline>
                        <polyline id="Path-100" points="316.37989 733.784429 332.481007 660.383632 415.510093 676.057312"></polyline>
                        <path d="M381.218996,724.706287 C381.218996,724.706287 348.956216,727.215225 352.917705,759.65426" id="Path-101"></path>
                        <path d="M430.661923,627.039656 C430.661923,627.039656 482.247773,688.10165 482.200201,720.751359" id="Path-102"></path>
                        <path d="M518.66017,597.846919 L508.038536,618.469048 C508.038536,618.469048 495.682669,652.026092 507.17142,656.213241 C518.66017,660.40039 524.822966,653.867097 540.370512,636.168073 C555.918058,618.469048 585.754643,658.64557 552.207406,686.648477" id="Path-103"></path>
                        <polyline id="Path-104" points="512.501698 755.960279 553.842169 772.720846 582.70568 702.250336"></polyline>
                        <path d="M594.276601,789.517323 C594.276601,789.517323 605.577224,746.439243 658.579436,698.441443" id="Path-105"></path>
                        <path d="M667.866878,770.015598 C667.866878,770.015598 698.914398,764.439915 698.732758,807.0751" id="Path-106"></path>
                        <polyline id="Path-107" points="620.932318 627.271877 689.795622 641.35353 694.537731 718.347758 746.828519 727.734729"></polyline>
                        <polyline id="Path-108" points="674.531348 852.846458 642.277217 877.65813 674.046974 914.463866 628.500664 945.883045"></polyline>
                        <polyline id="Path-109" points="723.848856 861.153724 698.03647 918.028568 718.778064 971.843849"></polyline>
                        <path d="M577.051044,908.864242 C577.051044,908.864242 549.612545,916.307265 561.577019,945.198354 C573.541494,974.089444 578.341988,975.801172 556.854371,985.949442" id="Path-110"></path>
                        <polyline id="Path-111" points="796.9007 957.953718 757.540973 893.549666 813.058038 869.52084 758.332406 854.661129"></polyline>
                        <polyline id="Path-112" points="793.302492 805.059332 721.779454 784.820247 840.079198 736.920601"></polyline>
                        <path d="M857.86265,801.757972 L857.86265,872.299713" id="Path-113"></path>
                        <path d="M742.397793,975.245758 L763.143712,1053.81047" id="Path-114"></path>
                        <polyline id="Path-115" points="825.448503 1049.96566 851.810135 1098.56436 884.978954 1063.52302 907.307739 1099.45733"></polyline>
                        <path d="M820.840461,1163.14079 L891.342853,1189.28353" id="Path-116"></path>
                        <polyline id="Path-117" points="876.258057 1125.5546 925.184174 1156.05208 973.874591 1132.94495"></polyline>
                        <path d="M809.771214,1069.27347 C809.771214,1069.27347 805.775127,1079.98913 795.147006,1085.15543 C784.518885,1090.32174 774.762205,1107.83163 788.973397,1125.03509 C803.18459,1142.23856 795.806533,1153.67242 785.405462,1161.91504 C775.004392,1170.15767 772.165181,1167.24414 768.169094,1178.65407" id="Path-118"></path>
                        <path d="M839.475893,913.929998 C839.475893,913.929998 864.064369,926.781123 849.978595,944.585484 C835.892821,962.389846 784.103707,1038.82387 872.789592,1011.927" id="Path-119"></path>
                        <polyline id="Path-120" points="895.062154 885.474621 905.214551 812.495172 989.835152 818.827368"></polyline>
                        <path d="M959.027657,862.338766 C959.027657,862.338766 978.67076,894.801741 926.637296,949.160465" id="Path-121"></path>
                        <path d="M894.646977,951.336634 C894.646977,951.336634 934.934366,1051.05494 1005.24431,949.641664" id="Path-122"></path>
                        <path d="M943.337393,1038.4935 C943.337393,1038.4935 964.578499,1009.85617 987.733314,1038.65629" id="Path-123"></path>
                        <path d="M1050.04676,1048.6705 L965.378581,1099.00965" id="Path-124"></path>
                        <polyline id="Path-125" points="1029.83278 1117.6615 1062.08259 1185.26636 995.033525 1160.09319 1013.67977 1211.26547"></polyline>
                        <path d="M821.884384,88.6399199 C821.884384,88.6399199 729.387729,131.501979 823.214777,209.914309" id="Path-126"></path>
                        <polyline id="Path-127" points="824.825354 162.080657 859.581407 180.295766 871.011736 129.518406 918.963082 156.27765"></polyline>
                        <polyline id="Path-128" points="882.760369 77.5509025 950.402681 88.4985375 944.560767 182.530451"></polyline>
                        <path d="M1014.77238,151.557169 L965.118968,212.653328" id="Path-129"></path>
                        <path d="M947.881033,28.212687 L887.42711,28.212687" id="Path-130"></path>
                        <polyline id="Path-131" points="993.324072 13.4034165 986.254689 105.964531 1054.02661 118.467372"></polyline>
                        <polyline id="Path-132" points="1027.32916 242.649595 1041.28685 176.813962 1059.93714 241.609274 1120.91605 198.548858"></polyline>
                        <polyline id="Path-133" points="1078.4845 102.725399 1061.37999 51.5639855 1128.97465 81.6277781 1093.94604 9.18515847"></polyline>
                        <path d="M1141.02824,111.902589 L1214.23801,118.515906" id="Path-134"></path>
                        <path d="M1107.16611,112.894376 C1107.16611,112.894376 1109.78306,176.607164 1187.64729,169.365012" id="Path-135"></path>
                        <path d="M1005.75315,277.545709 C1005.75315,277.545709 969.295031,271.915738 972.243625,308.016768" id="Path-136"></path>
                        <path d="M1173.65148,203.988913 C1173.65148,203.988913 1190.08126,203.001346 1198.81268,212.872788 C1207.54411,222.744229 1223.49358,216.272294 1229.85202,196.841719 C1236.21047,177.411144 1246.47622,174.790295 1261.18107,183.937943 C1275.88592,193.085591 1277.01809,193.672223 1283.15163,191.745624" id="Path-137"></path>
                        <path d="M1333.61128,198.565739 L1387.24062,166.615442" id="Path-138"></path>
                        <polyline id="Path-139" points="1249.51249 132.719555 1308.82365 89.4143574 1328.38882 151.755526 1341.97865 86.5656089"></polyline>
                        <polyline id="Path-140" points="1264.28977 72.2754423 1214.2361 43.3996832 1167.03953 66.2213241"></polyline>
                        <polyline id="Path-141" points="1312.08292 241.957455 1378.36244 252.191848 1374.04723 345.569604"></polyline>
                        <path d="M1408.54026,275.812296 L1470.13444,275.812296" id="Path-142"></path>
                        <path d="M1250.45216,275.564247 C1250.45216,275.564247 1306.50975,329.855063 1329.66775,311.758124" id="Path-143"></path>
                        <path d="M1437.63547,357.044785 C1437.63547,357.044785 1402.81652,352.4066 1404.34704,387.587589" id="Path-144"></path>
                        <polyline id="Path-145" points="1271.67937 1.66868275 1298.17478 51.3740689 1331.06676 15.0303684 1353.67773 52.4671443"></polyline>
                        <path d="M1427.69373,13.3548822 C1427.69373,13.3548822 1417.31361,27.6408285 1401.13732,28.7571159 C1384.96104,29.8734032 1392.72039,55.5796658 1392.72039,55.5796658 C1392.72039,55.5796658 1408.14,88.057509 1383.57156,94.1875938 C1359.00311,100.317679 1362.24714,110.471884 1362.24714,110.471884" id="Path-146"></path>
                        <polyline id="Path-147" points="1455.78066 112.02709 1437.45821 60.1777569 1505.43407 89.684461 1470.56366 18.4636379"></polyline>
                        <path d="M1514.88787,8.53311158 C1514.88787,8.53311158 1604.48549,82.3431305 1516.17062,131.003976" id="Path-148"></path>
                        <polyline id="Path-149" points="1427.1448 129.982646 1421.23999 222.41293 1486.50742 235.700759"></polyline>
                        <path d="M1470.29682,165.532918 C1470.29682,165.532918 1485.33522,138.773673 1548.40502,200.889052" id="Path-150"></path>
                        <polyline id="Path-151" points="1546.77729 276.034818 1522.27747 348.85727 1473.13487 312.382738 1495.28268 370.022417"></polyline>
                        <polyline id="Path-152" points="1443.01804 417.199802 1493.94085 448.381993 1543.29692 425.959177"></polyline>
                        <polyline id="Path-153" points="1488.9776 496.097475 1520.7965 564.828281 1455.43568 538.733745 1472.88137 590.063973"></polyline>
                        <polyline id="Path-155" points="1550.3644 567.088288 1538.32605 643.747056 1468.22118 650.288626 1459.77947 707.561133"></polyline>
                        <polyline id="Path-156" points="1324.03359 570.684042 1240.27026 563.705663 1229.79103 639.275576"></polyline>
                        <path d="M1195.54065,553.534576 L1195.54065,621.142956" id="Path-157"></path>
                        <polyline id="Path-158" points="1330.13281 618.448059 1376.46405 597.225937 1350.70436 672.728324 1415.09121 635.192369"></polyline>
                        <polyline id="Path-159" points="1428.50379 661.651968 1420.18978 753.193863 1487.03347 764.924377"></polyline>
                        <path d="M1295.09467,621.649208 C1295.09467,621.649208 1316.83269,638.334434 1262.30562,708.227951" id="Path-160"></path>
                        <polyline id="Path-161" points="1096.6945 607.734654 1150.70123 622.845682 1094.0299 644.738842 1133.74158 713.632132"></polyline>
                        <polyline id="Path-162" points="1075.28241 664.851007 1049.34164 717.149809 1068.9354 773.038035"></polyline>
                        <polyline id="Path-163" points="974.965405 688.280381 1017.23303 661.375534 988.156885 625.268174 1020.86589 599.926973"></polyline>
                        <path d="M1027.79613,548.143055 C1027.79613,548.143055 1057.99873,540.329044 1057.37928,583.699657" id="Path-164"></path>
                        <polyline id="Path-165" points="975.495275 528.039332 946.672624 598.39709 879.154202 588.603725 858.780884 638.06855"></polyline>
                        <path d="M853.954872,557.879445 L804.907572,617.388746" id="Path-166"></path>
                        <path d="M601.338309,496.327485 C601.338309,496.327485 581.069822,554.429294 601.014288,609.186461" id="Path-167"></path>
                        <path d="M642.130689,545.488444 C642.130689,545.488444 635.301463,512.696183 673.404466,515.279049" id="Path-168"></path>
                        <polyline id="Path-169" points="682.539962 567.056635 704.80404 605.244637 736.98317 570.420269 763.358507 616.181721"></polyline>
                        <path d="M757.39842,653.778871 C757.39842,653.778871 768.960264,658.836982 772.91523,672.380144 C776.870197,685.923305 790.433348,697.601064 805.734779,684.990604 C821.03621,672.380144 833.126018,674.789974 839.194747,691.863473 C845.263476,708.936973 847.958571,710.382449 854.370382,712.484192" id="Path-170"></path>
                        <polyline id="Path-171" points="936.202923 652.478997 899.994492 698.835521 908.476227 755.742966"></polyline>
                        <path d="M945.235494,729.631548 L1002.56249,782.768093" id="Path-172"></path>
                        <polyline id="Path-173" points="1031.10496 783.726117 1001.17492 854.13874 1052.95353 831.236912 1027.03182 905.293822 1089.63084 866.671123"></polyline>
                        <polyline id="Path-174" points="1087.9364 916.144389 1148.3111 873.294991 1167.87055 937.104847 1181.71579 872.423485"></polyline>
                        <path d="M1126.85326,763.879836 L1135.79625,783.430691 C1135.79625,783.430691 1141.61339,802.323169 1131.72502,806.199578 C1121.83665,810.075986 1104.92464,813.177956 1090.62577,788.528896" id="Path-175"></path>
                        <polyline id="Path-176" points="1245.05625 806.961354 1263.03753 845.330831 1298.68178 814.066344 1324.11745 862.372678"></polyline>
                        <path d="M1172.30202,665.256162 C1172.30202,665.256162 1176.45521,677.284211 1173.03202,684.02625 C1169.60883,690.768288 1158.16326,715.113481 1183.59321,723.706151 C1209.02317,732.298821 1209.49014,739.96723 1205.2264,755.409557 C1200.96266,770.851884 1198.93086,767.865973 1200.61767,781.797409" id="Path-177"></path>
                        <path d="M1191.95868,816.912982 C1191.95868,816.912982 1260.44726,877.64408 1215.77234,936.33252" id="Path-178"></path>
                        <path d="M1177.61025,969.675539 L1215.16433,1022.72979" id="Path-179"></path>
                        <polyline id="Path-180" points="1264.61189 917.832536 1257.23564 1011.8138 1323.3703 1024.65427"></polyline>
                        <polyline id="Path-181" points="1092.4422 1094.17851 1114.62432 1022.51033 1196.44542 1047.26068"></polyline>
                        <path d="M1245.22588,1078.14111 L1306.43542,1077.33502" id="Path-182"></path>
                        <polyline id="Path-183" points="1098.29364 1151.72534 1151.24445 1134.26146 1171.84649 1079.62457"></polyline>
                        <path d="M1023.63913,991.091797 C1023.63913,991.091797 1037.32808,990.304698 1045.41145,999.26876 C1053.49483,1008.23282 1067.98049,1008.75826 1077.92414,982.75446 C1087.86778,956.750661 1110.51687,974.301062 1110.51687,974.301062 C1110.51687,974.301062 1118.48589,983.634406 1129.37301,980.226459" id="Path-184"></path>
                        <path d="M1170.97544,1156.15251 C1170.97544,1156.15251 1189.51899,1182.24704 1202.70475,1185.16965 C1215.89052,1188.09225 1232.09921,1182.0719 1220.03608,1162.36489 C1207.97296,1142.65788 1201.30384,1125.00619 1219.8188,1117.2787 C1238.33376,1109.5512 1259.07875,1145.04661 1259.07875,1145.04661" id="Path-185"></path>
                        <polyline id="Path-186" points="1306.34202 1184.59779 1320.59896 1121.13189 1339.68001 1186.97174 1399.91367 1143.72141"></polyline>
                        <path d="M1347.39172,1085.80108 L1356.63204,1070.92639 C1356.63204,1070.92639 1363.80435,1062.47088 1373.16475,1072.20094 C1382.52516,1081.931 1394.83225,1098.98551 1410.45961,1102.66989 C1426.08697,1106.35427 1444.783,1109.51744 1441.72767,1081.8276 C1438.67234,1054.13777 1437.46774,1047.52023 1437.46774,1047.52023" id="Path-187"></path>
                        <path d="M1455.01445,1121.14033 L1413.4387,1189.87747" id="Path-188"></path>
                        <polyline id="Path-189" points="1470.59797 1151.77176 1503.19833 1196.62162 1532.32213 1156.8552 1558.74893 1188.41722"></polyline>
                        <path d="M1504.32668,1116.62665 C1504.32668,1116.62665 1499.97527,1105.92801 1505.80003,1092.45449 C1511.62479,1078.98096 1507.83374,1063.83617 1486.32444,1058.44676 C1464.81514,1053.05735 1467.54073,1038.00541 1470.85147,1024.7218 C1474.1622,1011.43819 1473.18442,1005.35875 1472.01794,1000.70369" id="Path-190"></path>
                        <polyline id="Path-191" points="1551.11155 954.821953 1533.05213 1010.89376 1560.53295 1061.27652"></polyline>
                        <path d="M1284.34479,951.099588 C1284.34479,951.099588 1306.56121,930.894576 1362.17852,989.97973" id="Path-192"></path>
                        <path d="M1389.84042,1009.64665 C1389.84042,1009.64665 1482.19603,971.426991 1390.42747,887.762413" id="Path-193"></path>
                        <path d="M1345.09688,902.489388 L1398.57184,843.37047" id="Path-194"></path>
                        <path d="M1430.15248,820.069818 L1491.88426,820.633237" id="Path-195"></path>
                        <polyline id="Path-196" points="1466.52674 929.898569 1481.07148 869.342616 1501.52866 932.228212 1561.04757 889.465331"></polyline>
                        <polyline id="Path-197" points="1343.98377 811.348427 1354.21904 753.61801 1403.15579 724.178832"></polyline>
                        <path d="M1341.45641,701.840424 C1341.45641,701.840424 1280.50418,804.329954 1231.77518,704.649079" id="Path-198"></path>
                        <path d="M1497.80242,710.646222 C1497.80242,710.646222 1605.80064,748.477602 1532.4708,826.020537" id="Path-199"></path>
                        <polyline id="Path-200" points="443.415668 453.568628 453.559415 378.875058 538.930364 386.138529"></polyline>
                        <polyline id="Path-201" points="553.258325 404.395361 599.6977 385.020519 573.612853 459.536932 634.780229 421.416877"></polyline>
                        <path d="M507.236291,435.515288 C507.236291,435.515288 527.528109,460.937436 474.541034,521.50626" id="Path-202"></path>
                        <path d="M436.305747,526.414011 C436.305747,526.414011 478.00085,626.340601 546.4706,527.113066" id="Path-203"></path>
                    </g>
                </g>
            </g>
        </g>
    </g>
</svg>